<?xml version="1.0" encoding="UTF-8" ?>
<!DOCTYPE svg PUBLIC "-//W3C//DTD SVG 1.1//EN" "http://www.w3.org/Graphics/SVG/1.1/DTD/svg11.dtd">
<svg width="100pt" height="100pt" viewBox="0 0 100 100" version="1.1" xmlns="http://www.w3.org/2000/svg">
<g id="#ffc400ff">
<path fill="#ffc400" opacity="1.00" d=" M 0.00 0.00 L 0.26 0.00 C 0.20 0.07 0.07 0.20 0.00 0.26 L 0.00 0.00 Z" />
<path fill="#ffc400" opacity="1.00" d=" M 45.63 12.67 C 53.24 10.04 61.64 8.84 69.60 10.49 C 77.02 11.80 82.51 18.10 85.35 24.74 C 89.55 36.58 86.30 49.57 80.72 60.38 C 77.36 54.54 72.90 49.42 69.48 43.61 C 66.74 39.42 64.05 33.67 58.20 33.70 C 48.78 33.24 39.34 32.48 29.91 32.57 C 26.47 32.30 24.64 35.61 22.98 38.04 C 19.65 43.41 16.33 48.78 13.04 54.18 C 14.08 50.11 13.99 45.72 16.06 41.95 C 21.86 28.90 33.09 19.06 45.63 12.67 Z" />
<path fill="#ffc400" opacity="1.00" d=" M 29.40 36.99 C 33.48 43.98 38.14 50.61 42.02 57.71 C 44.23 61.08 46.08 66.19 50.93 65.99 C 59.65 66.32 68.42 66.22 77.15 65.97 C 71.11 75.89 61.66 83.84 50.70 87.73 C 42.40 89.76 32.34 90.62 25.41 84.62 C 18.05 79.57 15.19 70.56 13.49 62.23 C 19.13 54.03 24.22 45.48 29.40 36.99 Z" />
</g>
<g id="#009428ff">
<path fill="#009428" opacity="1.00" d=" M 0.26 0.00 L 100.00 0.00 L 100.00 100.00 L 0.00 100.00 L 0.00 0.26 C 0.07 0.20 0.20 0.07 0.26 0.00 M 45.63 12.67 C 33.09 19.06 21.86 28.90 16.06 41.95 C 13.99 45.72 14.08 50.11 13.04 54.18 C 11.06 57.25 9.41 60.51 7.99 63.87 C 9.83 63.37 11.70 62.91 13.49 62.23 C 15.19 70.56 18.05 79.57 25.41 84.62 C 32.34 90.62 42.40 89.76 50.70 87.73 C 61.66 83.84 71.11 75.89 77.15 65.97 C 79.22 65.82 81.29 65.62 83.37 65.46 C 82.49 63.77 81.64 62.06 80.72 60.38 C 86.30 49.57 89.55 36.58 85.35 24.74 C 82.51 18.10 77.02 11.80 69.60 10.49 C 61.64 8.84 53.24 10.04 45.63 12.67 Z" />
</g>
<g id="#ffffffff">
<path fill="#ffffff" opacity="1.00" d=" M 22.98 38.04 C 24.64 35.61 26.47 32.30 29.91 32.57 C 39.34 32.48 48.78 33.24 58.20 33.70 C 64.05 33.67 66.74 39.42 69.48 43.61 C 72.90 49.42 77.36 54.54 80.72 60.38 C 81.64 62.06 82.49 63.77 83.37 65.46 C 81.29 65.62 79.22 65.82 77.15 65.97 C 68.42 66.22 59.65 66.32 50.93 65.99 C 46.08 66.19 44.23 61.08 42.02 57.71 C 38.14 50.61 33.48 43.98 29.40 36.99 C 24.22 45.48 19.13 54.03 13.49 62.23 C 11.70 62.91 9.83 63.37 7.99 63.87 C 9.41 60.51 11.06 57.25 13.04 54.18 C 16.33 48.78 19.65 43.41 22.98 38.04 Z" />
</g>
</svg>
