<?xml version="1.0" encoding="UTF-8" ?>
<!DOCTYPE svg PUBLIC "-//W3C//DTD SVG 1.1//EN" "http://www.w3.org/Graphics/SVG/1.1/DTD/svg11.dtd">
<svg width="100pt" height="100pt" viewBox="0 0 100 100" version="1.1" xmlns="http://www.w3.org/2000/svg">
<g id="#ffffffff">
<path fill="#ffffff" opacity="1.00" d=" M 0.00 0.00 L 100.00 0.00 L 100.00 100.00 L 0.00 100.00 L 0.00 0.00 M 22.32 28.42 C 14.63 31.10 13.33 42.57 20.00 47.08 C 24.12 51.00 30.58 46.55 34.60 50.49 C 38.70 53.93 37.58 61.48 32.48 63.35 C 29.54 64.02 25.47 63.66 24.34 67.23 C 21.91 72.29 27.60 78.32 32.74 75.73 C 37.19 74.09 35.39 68.21 38.71 65.64 C 41.63 62.75 46.49 65.29 49.47 62.42 C 53.37 59.65 53.36 53.25 49.58 50.39 C 47.04 48.01 43.17 49.40 40.35 47.70 C 37.33 45.93 35.92 42.45 36.65 39.06 C 38.01 31.54 29.03 25.36 22.32 28.42 M 42.56 30.54 C 40.92 35.29 42.00 40.39 41.65 45.30 C 44.50 45.36 47.67 44.98 50.02 46.94 C 53.96 49.95 57.24 53.71 60.97 56.97 C 64.18 53.88 67.30 50.70 70.66 47.77 C 71.16 52.90 69.99 58.25 71.70 63.22 C 72.88 66.67 76.49 68.20 79.76 68.98 C 80.23 64.67 80.25 60.35 79.93 56.03 C 80.09 47.54 80.05 39.04 79.51 30.56 C 78.45 30.59 77.39 30.61 76.33 30.64 C 71.30 35.49 65.99 40.04 60.90 44.84 C 55.60 40.11 50.43 35.23 45.18 30.44 C 44.52 30.47 43.21 30.51 42.56 30.54 Z" />
</g>
<g id="#0f83baff">
<path fill="#0f83ba" opacity="1.00" d=" M 22.32 28.42 C 29.03 25.36 38.01 31.54 36.65 39.06 C 35.92 42.45 37.33 45.93 40.35 47.70 C 43.17 49.40 47.04 48.01 49.58 50.39 C 53.36 53.25 53.37 59.65 49.47 62.42 C 46.49 65.29 41.63 62.75 38.71 65.64 C 35.39 68.21 37.19 74.09 32.74 75.73 C 27.60 78.32 21.91 72.29 24.34 67.23 C 25.47 63.66 29.54 64.02 32.48 63.35 C 37.58 61.48 38.70 53.93 34.60 50.49 C 30.58 46.55 24.12 51.00 20.00 47.08 C 13.33 42.57 14.63 31.10 22.32 28.42 Z" />
</g>
<g id="#f68f1dff">
<path fill="#f68f1d" opacity="1.00" d=" M 42.56 30.54 C 43.21 30.51 44.52 30.47 45.18 30.44 C 50.43 35.23 55.60 40.11 60.90 44.84 C 65.99 40.04 71.30 35.49 76.33 30.64 C 77.39 30.61 78.45 30.59 79.51 30.56 C 80.05 39.04 80.09 47.54 79.93 56.03 C 80.25 60.35 80.23 64.67 79.76 68.98 C 76.49 68.20 72.88 66.67 71.70 63.22 C 69.99 58.25 71.16 52.90 70.66 47.77 C 67.30 50.70 64.18 53.88 60.97 56.97 C 57.24 53.71 53.96 49.95 50.02 46.94 C 47.67 44.98 44.50 45.36 41.65 45.30 C 42.00 40.39 40.92 35.29 42.56 30.54 Z" />
</g>
</svg>
