<?xml version="1.0" encoding="UTF-8" ?>
<!DOCTYPE svg PUBLIC "-//W3C//DTD SVG 1.1//EN" "http://www.w3.org/Graphics/SVG/1.1/DTD/svg11.dtd">
<svg width="500pt" height="500pt" viewBox="0 0 500 500" version="1.1" xmlns="http://www.w3.org/2000/svg">
<g id="#557bf5ff">
<path fill="#557bf5" opacity="1.00" d=" M 0.00 0.00 L 500.00 0.00 L 500.00 500.00 L 0.00 500.00 L 0.00 0.00 M 143.39 136.44 C 138.32 138.09 135.93 143.18 133.49 147.47 C 120.51 171.43 113.60 198.73 113.96 226.00 C 113.46 271.47 133.35 317.34 168.53 346.50 C 192.45 366.43 223.71 377.84 254.95 376.27 C 276.15 375.59 297.04 369.10 315.15 358.11 C 337.01 344.89 354.84 325.41 366.89 302.94 C 383.46 272.77 389.13 237.21 384.59 203.23 C 383.83 198.05 383.85 192.11 379.82 188.20 C 376.44 184.21 370.64 183.10 365.81 184.76 C 359.39 186.94 353.01 189.26 346.70 191.75 C 341.10 193.84 337.71 200.17 338.69 206.00 C 342.64 228.68 339.68 252.70 329.40 273.38 C 322.88 287.25 312.69 299.20 300.65 308.61 C 285.58 319.82 266.84 326.44 247.95 325.72 C 224.98 325.31 202.78 314.51 187.33 297.66 C 157.01 265.78 151.23 214.30 171.71 175.71 C 173.54 171.95 176.44 168.40 176.25 163.99 C 176.58 159.66 174.14 155.78 171.12 152.89 C 166.58 148.43 162.13 143.87 157.59 139.41 C 153.96 135.76 148.18 134.67 143.39 136.44 M 188.40 224.48 C 185.23 225.76 182.20 228.38 181.80 231.97 C 180.47 242.70 183.14 253.51 187.65 263.21 C 191.44 271.81 196.55 280.13 204.04 286.00 C 207.76 288.91 211.29 292.09 215.28 294.66 C 228.05 302.26 243.26 305.52 258.04 304.15 C 263.92 303.81 269.49 301.78 275.14 300.30 C 279.34 299.20 282.97 296.76 286.76 294.76 C 295.68 290.10 302.63 282.49 308.49 274.46 C 312.10 268.66 315.86 262.68 317.30 255.91 C 318.15 250.28 313.87 244.79 308.28 243.94 C 301.60 242.88 294.83 240.90 288.03 241.76 C 283.16 242.50 282.27 247.75 280.27 251.36 C 276.00 258.04 269.64 263.45 262.12 266.13 C 246.23 272.72 226.51 263.30 220.51 247.46 C 218.27 243.10 217.92 238.20 217.35 233.43 C 216.29 228.75 211.31 226.76 207.03 226.15 C 200.90 225.21 194.60 222.90 188.40 224.48 Z" />
</g>
<g id="#feffffff">
<path fill="#feffff" opacity="1.00" d=" M 143.39 136.44 C 148.18 134.67 153.96 135.76 157.59 139.41 C 162.13 143.87 166.58 148.43 171.12 152.89 C 174.14 155.78 176.58 159.66 176.25 163.99 C 176.44 168.40 173.54 171.95 171.71 175.71 C 151.23 214.30 157.01 265.78 187.33 297.66 C 202.78 314.51 224.98 325.31 247.95 325.72 C 266.84 326.44 285.58 319.82 300.65 308.61 C 312.69 299.20 322.88 287.25 329.40 273.38 C 339.68 252.70 342.64 228.68 338.69 206.00 C 337.71 200.17 341.10 193.84 346.70 191.75 C 353.01 189.26 359.39 186.94 365.81 184.76 C 370.64 183.10 376.44 184.21 379.82 188.20 C 383.85 192.11 383.83 198.05 384.59 203.23 C 389.13 237.21 383.46 272.77 366.89 302.94 C 354.84 325.41 337.01 344.89 315.15 358.11 C 297.04 369.10 276.15 375.59 254.95 376.27 C 223.71 377.84 192.45 366.43 168.53 346.50 C 133.35 317.34 113.46 271.47 113.96 226.00 C 113.60 198.73 120.51 171.43 133.49 147.47 C 135.93 143.18 138.32 138.09 143.39 136.44 Z" />
</g>
<g id="#fca5afff">
<path fill="#fca5af" opacity="1.00" d=" M 188.40 224.48 C 194.60 222.90 200.90 225.21 207.03 226.15 C 211.31 226.76 216.29 228.75 217.35 233.43 C 217.92 238.20 218.27 243.10 220.51 247.46 C 226.51 263.30 246.23 272.72 262.12 266.13 C 269.64 263.45 276.00 258.04 280.27 251.36 C 282.27 247.75 283.16 242.50 288.03 241.76 C 294.83 240.90 301.60 242.88 308.28 243.94 C 313.87 244.79 318.15 250.28 317.30 255.91 C 315.86 262.68 312.10 268.66 308.49 274.46 C 302.63 282.49 295.68 290.10 286.76 294.76 C 282.97 296.76 279.34 299.20 275.14 300.30 C 269.49 301.78 263.92 303.81 258.04 304.15 C 243.26 305.52 228.05 302.26 215.28 294.66 C 211.29 292.09 207.76 288.91 204.04 286.00 C 196.55 280.13 191.44 271.81 187.65 263.21 C 183.14 253.51 180.47 242.70 181.80 231.97 C 182.20 228.38 185.23 225.76 188.40 224.48 Z" />
</g>
</svg>
